<?xml version="1.0" standalone="no"?>
<!DOCTYPE svg PUBLIC "-//W3C//DTD SVG 20010904//EN"
 "http://www.w3.org/TR/2001/REC-SVG-20010904/DTD/svg10.dtd">
<svg version="1.0" xmlns="http://www.w3.org/2000/svg"
 width="512.000000pt" height="512.000000pt" viewBox="0 0 512.000000 512.000000"
 preserveAspectRatio="xMidYMid meet">

<g transform="translate(0.000000,512.000000) scale(0.100000,-0.100000)"
fill="#000000" stroke="none">
<path d="M4265 5006 c-123 -127 -215 -195 -355 -266 -191 -96 -378 -142 -654
-161 -196 -13 -393 -3 -855 42 -362 36 -728 48 -902 30 -356 -37 -636 -157
-859 -368 -59 -55 -68 -68 -60 -84 6 -10 168 -582 360 -1271 193 -689 352
-1259 355 -1266 4 -10 27 5 73 45 317 280 674 387 1222 369 107 -4 263 -13
345 -21 83 -8 249 -25 370 -37 313 -31 729 -31 895 0 173 32 282 66 415 131
144 71 261 154 373 269 83 85 114 131 125 188 13 67 3 77 -163 169 -261 145
-509 318 -724 505 -47 41 -90 87 -95 101 -7 20 3 76 44 240 99 398 178 811
236 1225 25 177 29 230 21 249 -21 46 -50 31 -167 -89z"/>
<path d="M140 4237 c-73 -23 -140 -120 -140 -202 0 -39 1077 -3891 1103 -3945
26 -53 83 -90 141 -90 21 0 70 9 107 20 108 32 159 88 159 172 0 26 -212 802
-540 1974 -296 1062 -544 1942 -549 1955 -15 42 -63 91 -106 110 -45 21 -121
23 -175 6z"/>
</g>
</svg>
