<svg version="1.2" xmlns="http://www.w3.org/2000/svg" viewBox="0 0 644 490" width="644" height="490">
	<title>nasa-herc-svg</title>
	<style>
		.s0 { fill: #fefefe } 
		.s1 { fill: #f8f8f8 } 
		.s2 { fill: #f2f2f2 } 
		.s3 { fill: #f5f6f6 } 
		.s4 { fill: #eeeeee } 
		.s5 { fill: #eaeaea } 
		.s6 { fill: #eef2f2 } 
		.s7 { fill: #e7e7e7 } 
		.s8 { fill: #a1a3a3 } 
		.s9 { fill: #d2d2d2 } 
		.s10 { fill: #dcdcdc } 
		.s11 { fill: #e3e3e3 } 
		.s12 { fill: #c0c2c1 } 
	</style>
	<g id="Layer">
	</g>
	<g id="Layer">
		<path id="Layer" class="s0" d="m238.7 10c2.6 0.5 9.5 1.9 15.3 3 34.6 6.9 67.2 23.3 94.5 47.5 7.9 7 28.5 29.4 28.5 31 0 0.2 2.4 3.8 5.3 8 2.8 4.2 7.5 11.9 10.3 17.3 2.7 5.3 6.7 12.9 8.8 16.9 3.4 6.5 3.9 9.3 1.7 9.3-0.4 0-1.6-1.9-2.7-4.2-1.8-4-10.7-17.7-19.7-30.2-5.4-7.7-27.9-30.6-29.9-30.6-0.9 0-2.3-1.1-3.1-2.4-1.8-2.7-20.6-15.4-31.7-21.4-17.2-9.2-39.9-17.1-60-20.7l-9.5-1.7-19.1-0.5-19.1-0.6-9.9 1.2c-24.7 2.9-45.9 9.3-68.6 20.7-18.3 9.2-33.8 20.4-49.7 35.8l-11.3 11.1-8.2 11c-14.7 19.8-23 35.6-30.6 58.7-4.4 13.3-7.6 27.8-9 41.3-1.3 11.9-1.2 32.8 0 44 1.4 12.1 4.7 27.8 7.2 34.5 1.1 3 2.3 7 2.5 8.9l0.5 3.3-1.2-0.4c-0.6-0.2-2-2.6-3-5.3-6.2-16.6-8.3-22.5-9.6-27-3.3-11.7-6.4-29.3-7.5-42.5l-1.2-14.1 1.3-14.2c2.4-28.7 9-52.6 21.1-76.7 3.2-6.5 8.5-15.8 11.7-20.6 13.6-20.8 35.5-43 55.2-56.1 12.5-8.3 21.2-13.1 33.1-18.4 13.3-5.9 29.5-10.9 42.9-13.4 5.2-0.9 10.9-2.1 12.5-2.5 4.4-1.2 46.5-1.2 52.2 0z"/>
		<path id="Layer" class="s0" d="m284.9 142c1 0 3.3 1 5.2 2.3l3.4 2.2 2.3 4.5 2.2 4.4v4.4c0 2.4-0.5 5.2-1 6.3-0.6 1-2.6 2.5-4.4 3.3l-3.4 1.4-1.1 3.4c-0.6 1.8-1.4 7.2-1.9 11.9l-0.8 8.6 1.6-0.1c2-0.1 4.8-2.9 9.4-9.4 2.1-2.8 4.3-5.2 5.1-5.2 2.4 0 6.6 4.2 9.1 9.3 1.5 2.9 4 6.7 5.8 8.5 3 3.2 8.4 6.3 11.7 6.7 0.9 0.1 3.9 1.6 6.6 3.3 2.7 1.8 5.4 3.2 6 3.2 0.5 0 2 1.1 3.3 2.5l2.3 2.5h2.6l2.6-0.1 3.8-7.7c2.1-4.2 6-12 8.7-17.2l4.9-9.5 6.3-5.7c3.5-3.2 7.5-6.9 9.1-8.2l2.7-2.5v-2.8c0-3.7 3.2-8.9 6.7-10.7 2.8-1.4 6.8-2 11-1.8 1.2 0.1 3.8 1.6 5.8 3.3l3.5 3.1v4.3 4.3l-6.7 5.9c-3.8 3.2-7.2 6.4-7.6 7-0.4 0.7-2.1 1.3-3.6 1.3h-2.8l-0.7 3.1c-0.3 1.7-0.6 6.3-0.6 10.2v7.1l9.4-9.2c5.1-5.1 10-9.3 10.7-9.3 3.4-0.3 6.2 0.6 19.2 6.2 7.7 3.2 14.5 5.9 15.1 5.9 0.7 0 4.5-3.2 8.4-7.1l7.2-7.1 1.5 0.6c0.8 0.3 1.5 1.4 1.5 2.5 0 2.5-7.5 17.3-10.6 21.1l-2.6 3h-2.1c-1.2 0-5.1-0.9-8.6-2-3.5-1.1-6.6-1.8-6.9-1.5-0.3 0.3 0.2 2.1 1.1 3.9l1.6 3.4 3.5 1.2 3.5 1.1 5.8-1.1 5.8-1 2 2.5c1.2 1.4 2.8 2.5 3.6 2.5 0.9 0 3.7 1.1 6.3 2.5 2.6 1.4 5.2 2.5 5.7 2.5 0.6 0 5.7 2.2 11.5 5l10.4 5v1.5c0 2.2-2.3 1.9-8-1-2.7-1.4-5.6-2.5-6.3-2.5-0.8 0-3.4-0.9-5.8-1.9l-4.4-1.9-13.1-0.7-13.1-0.7-4.8 2.1c-2.6 1.2-5.4 2.1-6.1 2.1-0.7 0-2.1-1.1-3-2.5l-1.6-2.5h-4.7c-2.5 0-16.3 1.4-30.6 3l-26 3.1-5.1 1.9-5.2 1.8-2.5-1.3c-1.4-0.7-3.9-1.6-5.6-2-1.7-0.4-3.1-1.1-3.1-1.6 0-0.5-1.2-0.1-2.7 1l-2.8 2.1-34.8 2.2-34.8 2.2-12.2-1.9c-6.7-1-14.2-1.9-16.7-2-6.6-0.1-16.1-1.5-19.2-2.8-1.5-0.6-2.9-1.9-3.1-2.8l-0.4-1.7h-2.7c-3.1 0-4.1-0.6-3.1-2.2l0.6-1 13.2 0.5c7.3 0.3 18.4 1 24.7 1.5 14.7 1.2 15 1.2 15-0.2 0-0.6-0.9-4.6-2.1-8.9l-2.1-7.7-2.1-0.6c-2.1-0.5-9.3-0.5-25.2-0.2l-7 0.1v-2-2l3-1.4 3-1.5 11.4-0.4 11.3-0.5-3.1-1.9c-1.7-1.1-3.1-2.3-3.1-2.7 0-0.4 0.5-1.2 1.1-1.8l1.1-1.1 2.8 0.8c1.5 0.4 3.3 0.5 3.9 0.1 0.6-0.4 1.4-2.5 1.8-4.7l0.6-3.9-2.2 1.9-2.1 2-1.1-1.1-1.1-1.1 1.1-2 1.1-2-1.6-0.6-1.6-0.6 0.4-2.3 0.5-2.4-2.4 0.5-2.3 0.4v-1.4c0-1.7 4.2-5.8 8.8-8.6l3.4-2-1.1-0.7c-1.9-1.1-0.1-2.6 6.4-5.6l6.2-2.8 2.4-3c1.3-1.6 3.2-4.1 4.2-5.5 1-1.4 2.6-2.6 3.6-2.6z"/>
		<path id="Layer" class="s0" d="m128.9 201.9c3.9 5.3 14.4 15.2 30.1 28.2 5.3 4.3 18.3 12.1 31.9 18.9 3.4 1.7 6.5 3 6.7 2.7 0.2-0.2-1-2.5-2.8-5.1l-3.1-4.8-0.4-4.6-0.5-4.7 2.2-4.5c4.4-9.2 5.5-11 7-11 0.8 0 3.8-1.8 6.5-4 2.8-2.2 5.8-4 6.8-4h1.7v1.8c0 1-1.4 3.1-3.1 4.8-1.7 1.6-5 5.9-7.5 9.5l-4.4 6.7v4.4 4.4l3.3 3.1 3.2 3.1 4.1 0.7c2.3 0.3 9.6 0.1 16.2-0.5l12.1-1.1 10.3-3.5 10.3-3.5 9.8-1.1 9.8-1.1 1.2 1.2 1.1 1.1-1.5 1.5c-0.8 0.8-5.8 3.9-11.1 6.8l-9.7 5.4-8.6 1.8c-4.7 1-8.8 2.2-9.1 2.6-0.3 0.5-6.4 0.9-13.6 0.9h-13l1.1 1.4c0.7 0.8 1.1 3 0.9 4.8l-0.3 3.3-8.3 0.3-8.3 0.3-3.7-1.9c-2-1.1-6.4-3.2-9.7-4.7-3.3-1.5-11.2-5.9-17.5-9.8l-11.5-6.9-11.3-11.2-11.3-11.1-4.4-7.1c-2.5-4-4.5-7.6-4.5-8.2 0-0.5-0.9-2.9-1.9-5.3-1.1-2.4-1.7-4.7-1.5-5.1 1-1.6 2.1-0.7 6.3 5.1z"/>
		<path id="Layer" class="s0" d="m457.5 230.5c6 2.7 10.7 7.4 13.4 13.5l2 4.6-1.4 6.2c-1.5 6.2-3.6 10-8.4 15.4l-2.5 2.8h17.7 17.7v1.5 1.5h-19.7-19.7l-3.1 2.8c-1.6 1.6-5 3.6-7.5 4.5l-4.6 1.7h-5.9c-3.3 0-8.8-0.5-12.3-1l-6.3-1.1-6.7-3.5-6.6-3.5-3.9 0.4c-2.1 0.2-4 0.7-4.3 1-0.3 0.3 0.8 0.8 2.5 1.2 1.7 0.4 7.2 2.9 12.1 5.6 5 2.7 9.5 4.9 9.9 4.9 0.4 0 7.3 2.9 15.2 6.4l14.4 6.4 0.3 1.6c0.2 0.9 0.2 1.6-0.1 1.6-0.2 0-4.4-1.7-9.3-3.9-8.8-3.8-19.4-6.9-25.6-7.5-11-1.1-16.5-2-17.7-3l-1.4-1.1-44.6-0.2c-24.5-0.1-48.9-0.4-54.1-0.8-18.3-1.2-48.1-5.8-61.8-9.5l-7.2-2h-14.8l-14.7 0.1 3.3 1.4c5 2.2 25.8 8.2 34.3 9.9 12.1 2.5 26.6 4.5 40.5 5.6 7.1 0.6 36.8 1.5 66 2l53.2 0.9 6.3 1.2c3.5 0.6 8.7 1.9 11.4 2.9 2.8 1 10 2.8 16 4 19 3.9 23.5 5.4 41 14.4 7.7 4 18.5 10.2 24 13.9 17.2 11.4 44.2 34.2 43.4 36.6l-0.4 1.2-3.5-2.5c-8.2-5.9-26.1-17.6-33.7-21.9-18.3-10.5-39.6-19.2-57.5-23.7-4.3-1.1-13.1-2.7-19.5-3.7l-11.8-1.7-23.5 0.1c-12.9 0.1-33.4 0.6-45.6 1.1l-22 0.8-17.5-0.7c-25.7-1.1-47.6-4.3-64.9-9.5-10.8-3.2-12.5-3.8-24-8.8-12-5.1-21.3-10.3-31.7-17.7l-8.2-5.8-26.1-0.7-26-0.7v-1.4-1.3h140.6 140.6l-0.7-1.8c-0.3-0.9-1.1-3.8-1.7-6.3l-1.1-4.5 1.8-6 1.7-5.9 7.1-7.1 7.2-7.1 3.9-1.3 3.8-1.2 1.1 1.1 1 1-2.9 1.3c-11.7 5.2-18.4 14.4-18.4 25.2v3.9l4.4 4.4 4.4 4.4 14.4-0.2 14.3-0.1 5-2.4c2.8-1.4 7.1-4.6 9.7-7.1l4.6-4.5 1.1-4.2c0.7-2.2 1-6 0.7-8.4l-0.4-4.3-2.5-3.2-2.4-3.2-5.4-1.9c-3-1.1-7.8-2.2-10.8-2.5l-5.4-0.6-0.4-1.2-0.4-1.2 4.8-0.4c6.4-0.5 9.8 0.1 15.8 2.8z"/>
		<path id="Layer" class="s0" d="m138.3 233.7l7.2 7.4c3.9 4.1 10.1 9.8 13.8 12.7 3.7 3 6.7 5.8 6.7 6.3 0 0.5-2.4 0.9-5.3 0.9h-5.3l-9.3-12.5-9.3-12.4 0.8-1.2z"/>
		<path id="Layer" class="s0" d="m113.3 276.8l6.3 0.4 6.4 0.4 2.7 2.1 2.8 2v3.4 3.4h-4-4l-1-2.2c-1.8-4.2-7-3.5-6.3 0.8l0.3 2.3 6.4 2.2c3.5 1.2 7.2 3.1 8.3 4.1l1.9 1.9 0.1 4.7 0.1 4.7-1.4 1.6c-2.3 2.8-7.5 4.4-13.9 4.4h-6.2l-2.9-2.9-2.9-2.9v-3.1-3.1h4.5 4.5v1.3c0 0.8 0.9 2.2 1.9 3.1l1.9 1.8 2.1-1.2c2.3-1.2 2.8-4.2 0.9-5.7-0.7-0.6-3.6-1.8-6.4-2.7-2.9-0.9-6-2.6-7-3.7l-1.9-2.1v-4.5-4.5l3.4-3z"/>
		<path id="Layer" class="s0" d="m50.6 278h4.4l1.4 2.2c0.7 1.3 2.6 5.7 4.2 9.8l2.9 7.5 0.5-9.5 0.5-9.5 3.8-0.3 3.7-0.3v17.5 17.6h-5-5.1l-0.6-1.8c-0.3-0.9-2-5.3-3.7-9.7l-3.1-8-0.5 9.5-0.5 9.5-4.2 0.3-4.3 0.3v-16.9c0-9.3 0.3-17.2 0.7-17.5 0.3-0.4 2.6-0.7 4.9-0.7z"/>
		<path id="Layer" fill-rule="evenodd" class="s0" d="m85 277.9l5.7 0.3 5.8 0.3 4.3 14.5c2.4 8 4.6 15.8 4.9 17.3l0.5 2.8-9.6-0.6-0.8-3.3-0.9-3.3-4.6 0.3-4.7 0.3-0.8 3.2-0.9 3.3h-8.9v-2.2c0-1.3 2.1-8.6 4.6-16.3 2.5-7.7 4.7-14.6 5-15.3zm6 12.6l-0.7-2-0.6 2c-0.3 1.1-0.8 3.5-1.2 5.2l-0.7 3.3h5.2l-0.7-3.3c-0.3-1.7-0.9-4.1-1.3-5.2z"/>
		<path id="Layer" fill-rule="evenodd" class="s0" d="m144.1 278h10.9l1 2.2c0.5 1.3 2.3 7.1 3.9 13 1.6 5.9 3.5 11.6 4 12.7 0.6 1.1 1.1 3.1 1.1 4.6v2.6l-4.7-0.3-4.8-0.3-1-6-9.4-0.6-0.9 3.3-0.8 3.3-9.4 0.6v-1.6c0-1 2.3-8.9 5.1-17.6zm5.9 12.6l-0.7-2-1.1 4.7c-0.7 2.5-1.2 4.8-1.2 5.1 0 0.3 1.2 0.6 2.6 0.6h2.6l-0.8-3.3c-0.3-1.7-1-4.1-1.4-5.1z"/>
		<path id="Layer" class="s0" d="m25 318h6.9 6.9l1.1 1.4 1.2 1.4-1.4 5.4c-0.8 2.9-1.8 6.1-2.2 7l-0.7 1.8h3 3l0.7-4.8c0.4-2.6 1.3-6.1 2-7.8l1.3-3.1 3.2-0.7c1.8-0.3 5.2-0.6 7.7-0.6h4.4l0.6 1.7 0.7 1.8-5.3 21c-2.9 11.5-5.8 21.8-6.3 22.7l-0.9 1.8h-7.4c-4 0-7.6-0.4-8-0.9-0.3-0.6 0.4-4.5 1.5-8.7 1.1-4.3 2-8.2 2-8.7 0-0.4-1.2-0.7-2.7-0.5l-2.8 0.3-2.2 8.4c-1.2 4.6-2.6 8.8-3.1 9.3-0.5 0.5-4 0.8-7.8 0.6l-6.9-0.3-0.3-2.7c-0.3-2.4 8.6-38.5 10.8-43.6z"/>
		<path id="Layer" class="s0" d="m68.2 318h6.8 6.8l1.1 1.4 1.2 1.4-4.6 16.8c-2.5 9.3-4.5 17.2-4.5 17.6 0 1.8 4 0.7 5.4-1.5 0.7-1.2 3-9.2 5.1-17.7 2.1-8.5 4.2-16.1 4.8-16.8l0.9-1.2h7 6.9l0.5 1.5c0.3 0.8-1.3 8.5-3.5 17.2-2.3 8.7-4.2 16.4-4.3 17.1-0.3 2.4-7.3 9.5-11.2 11.3l-4.1 1.9h-6.8-6.8l-3.3-1.4c-1.8-0.8-4.1-2.4-5-3.7l-1.6-2.3v-4.8c0-5.1 6.6-33.4 8.3-35.6z"/>
		<path id="Layer" fill-rule="evenodd" class="s0" d="m111.1 317.9l21.4 0.6-0.3 10.5c-0.2 5.8-0.2 10.3 0.1 10 0.2-0.3 2.1-4.3 4.1-8.9 2-4.6 4.3-9.3 5.3-10.3l1.6-1.8h19.8l0.6 1.6c0.3 0.8-1.3 8.8-3.6 17.7-2.3 8.9-4.4 17.3-4.7 18.7l-0.5 2.5 3.1-5.5c1.6-3 6-11.2 9.8-18.2 3.7-6.9 7.6-13.6 8.6-14.7l1.9-2.1h16.5l1 1.3 1.1 1.2 0.6 46-6.9 0.3-6.8 0.3-2-1.8-1.9-1.7 0.6-2.3 0.5-2.3h-8.8l-1.9 3.7-1.8 3.8-15.2 0.2-15.3 0.2-1.8-3.4 2.4-7.9c1.3-4.4 2.2-8.1 2.1-8.3-0.2-0.2-2.1 3.5-4.1 8.1-2.1 4.7-4.6 9.2-5.6 10.1l-1.8 1.6-4.8-0.3-4.9-0.3-1-18-1.8 8.1c-0.9 4.4-2.3 8.6-2.9 9.2l-1.2 1.2h-12.4l-1.1-1.4-1.2-1.4 5.2-20.8c2.8-11.5 5.8-21.9 6.6-23.2zm71.7 21.3l-0.3-4.7-2.2 4.7c-1.2 2.6-2.3 5.5-2.5 6.5l-0.3 1.7 1.7 0.4 1.7 0.3 1.1-2.1c0.6-1.1 1-4.2 0.8-6.8z"/>
		<path id="Layer" class="s0" d="m212.3 318h7.2 7.3l1.2 1.4c0.6 0.8 1.5 5.5 1.8 10.3l0.7 8.8 1.9-8.5c1-4.7 2.3-9.3 2.8-10.3l0.9-1.7h6.3 6.4l1.2 1.5 1.2 1.5-5.2 21.2c-2.9 11.7-5.7 22.1-6.2 23l-0.9 1.8h-7.8-7.9l-1.3-1.6-1.3-1.6-0.6-8.2-0.5-8.1-1.8 7.6c-1 4.2-2.5 8.6-3.3 9.7l-1.5 2.2h-6.5-6.5l-0.6-1.7-0.7-1.7 5.4-21.1c2.9-11.5 6-21.8 6.8-22.8z"/>
		<path id="Layer" class="s0" d="m403 329.2l18.5-0.2 10 1.5c5.5 0.8 13 2.1 16.7 3 17.4 4 44.2 16.1 62.3 28 19.8 13.1 42.4 32.7 57.3 49.8 4.8 5.5 11.1 12.7 14 16 2.8 3.3 5.2 6.3 5.2 6.8 0 2.3-3.2 0.3-10-6.4-16.3-15.9-31-27.9-48.5-39.9-14.6-9.9-28.4-18-42.8-25-15.1-7.5-21.1-9.9-38.2-15.8-14.7-5-21.3-6.7-38.5-10-9.7-1.8-14.1-2.3-31.8-3.4-3.5-0.2-6.6-0.7-7-1-1.3-1.4 1.7-2.5 7.8-2.9 3.6-0.2 14.8-0.4 25-0.5z"/>
		<path id="Layer" fill-rule="evenodd" class="s0" d="m255.4 381.4c4.1 1.7 7.4 5.8 8.2 10.2l0.6 3.5-2.1 8.7c-1.2 4.8-3.1 10.5-4.2 12.7-3 5.8-7.6 10.2-12.5 11.9l-4.3 1.5-7.6-0.2-7.7-0.2-3.4-3.7-3.4-3.8v-11.6l2.5-8.4c1.4-4.6 3.7-10.2 5.2-12.3 3-4.3 7.1-7.5 11.1-8.7 4.4-1.3 14-1.1 17.6 0.4zm-9.4 9.6h-3.8l-1.1 3.2c-1.8 6-6.1 22.6-6.1 23.8v1.1l5.4-0.6 2.8-9c1.5-5 2.8-11.1 2.8-13.8z"/>
		<path id="Layer" fill-rule="evenodd" class="s0" d="m428.6 380.4l6.2 0.4 3 1.7c1.7 1 3.5 2.9 4.1 4.2 2.5 5.4 0.4 20.9-3.9 29.2-2.6 5.1-10 11.9-14 13.1-4.4 1.3-11.5 1.3-16.1 0-1.9-0.6-4.6-2.1-5.9-3.5l-2.4-2.5-0.4-5.8-0.4-5.7 1.7-6.4c0.9-3.6 2.7-8.5 4-11.1 2.8-5.5 9.3-11.7 13.2-12.6 1.6-0.3 3.3-0.8 3.8-1 0.6-0.2 3.8-0.2 7.1 0zm-1.6 10.6h-1.9c-1 0-2.4 0.6-3 1.4-1.6 1.9-5.9 15.9-6.7 21.7l-0.6 4.6 3.6 1.4 1.3-1.4c1.5-1.4 7.3-21.8 7.3-25.5z"/>
		<path id="Layer" fill-rule="evenodd" class="s0" d="m73.2 381h31.7l0.7 1.1 0.6 1.1 2.2-2.2h15.5l0.8 1.2c0.4 0.7 1 3.1 1.3 5.3l0.6 4 1.7-3.3c1-1.8 2.7-4.2 3.8-5.3l1.9-1.9h13.9l0.6 1 0.7 1.1 1.3-1.1 1.4-1.1 29 0.6 3 2.9 3.1 3 0.6 3.2 0.6 3.3-1.2 3.6c-1.7 5.2-5.7 9.5-11.5 12.1l-5 2.4h-10.3l-1.8 7.1c-1 3.9-2.3 7.8-2.9 8.5l-1 1.5-6.7 0.6-6.8 0.6-1.2-3.4-1.2 1.4-1.1 1.3-8-0.5-8-0.6-1-5.5-1-5.4-3.3 5.1c-1.8 2.8-4 5.4-4.8 5.7-0.9 0.3-12.3 0.6-25.5 0.6h-24l-0.6-1.7-0.7-1.7 5.4-21c2.9-11.6 5.8-21.7 6.3-22.4zm76.5 3.3c-0.3-0.2-13 15.3-15.5 18.9l-1.3 1.8 2.4 7.3c1.4 3.9 2.8 8.8 3.2 10.7l0.8 3.5 5.3-21c2.9-11.5 5.2-21.1 5.1-21.2zm-43.7 2.6c0 1-0.9 3-2.1 4.5l-2 2.6h-15.9v4h12.8l1.1 1.4 1.1 1.3-0.6 3.1c-0.3 1.7-1.6 4-2.8 5.1l-2.1 2-6.9 0.3-7 0.3-1.4 5.4 8.6 0.3 8.7 0.3-0.1 3.7c-0.1 2.1 0 3.8 0.1 3.8 0.7 0 15.5-20.1 15.5-21 0-0.6-1.2-5.1-2.7-10-2.6-8.5-4.3-11.3-4.3-7.1zm58.6 7.3c-0.3 0.7-0.6 2.3-0.9 3.5l-0.5 2.3h1.9c2.1 0 5.4-4.4 4.4-6-0.9-1.4-4.5-1.3-4.9 0.2z"/>
		<path id="Layer" class="s0" d="m192.9 381h7.4 7.3l1.2 1.2 1.1 1.1-0.9 1.7c-0.9 1.7-8 29.1-8 30.9v1.1h7.9c4.4 0 8.2 0.4 8.5 0.8 0.8 1.3-1.4 8.5-3.2 10.4l-1.5 1.8h-14.7-14.8l-1.3-1.6-1.3-1.5 2.4-9.7c2.1-9 8.4-32.1 9.5-35z"/>
		<path id="Layer" fill-rule="evenodd" class="s0" d="m283.8 381.1h12.7l3.4 1.2c1.9 0.7 4.3 2.4 5.4 3.9l2 2.6-1.4 9.4-3.5 3.8-3.5 3.9 3 5.8-1.4 5.4c-0.8 3-1.5 6.3-1.5 7.3v2l0.9-1c0.5-0.5 5.5-9.5 11.2-19.9 5.6-10.5 11.1-20.2 12.1-21.8l1.9-2.7h16.9l0.9 2.2c0.5 1.3 1 12 1.2 23.8l0.4 21.5-7.8 0.3-7.7 0.3-0.4-1.3c-0.3-0.7-0.7-2.5-1-4.1l-0.6-2.7h-3.3c-1.7 0-3.7 0.4-4.3 0.8-0.6 0.4-1.7 2-2.5 3.7l-1.4 3-32.8 0.6 0.6-6.8c0.3-3.8 0.7-7.7 0.9-8.8l0.3-2-4.2-0.6-1.1 2.8c-0.6 1.5-1.9 5.5-2.9 8.8l-1.8 6-6.9 0.3c-3.8 0.2-7.3-0.1-7.8-0.6l-0.9-0.9 5.7-22.4c3.1-12.3 5.8-22.7 6.1-23.2 0.2-0.4 6.1-0.7 13.1-0.6zm1.6 10.9h-1.4l-0.6 2.7c-0.3 1.6-0.7 3.4-1 4l-0.3 1.3h2.7c1.6 0 3.3-0.5 4-1.2 1.7-1.7 1.5-5.5-0.4-6.2-0.9-0.3-2.2-0.6-3-0.6zm43.4 6c-0.7 0-4.5 10.6-4.1 11.2 0.2 0.5 1.3 0.8 2.4 0.8h1.9v-6c0-3.3-0.1-6-0.2-6z"/>
		<path id="Layer" class="s0" d="m367 381.1h18.1l0.6 1.5 0.5 1.5 1.2-1.6 1.1-1.5 6.7 0.3c3.7 0.1 7.2 0.7 7.7 1.2l1 1-5.7 22.5-5.7 22.5-8.2 0.3-8.3 0.3v-1.6c0-1.8 7.1-30.3 9.5-37.9 0.8-2.7 1.2-4.6 0.8-4.2-0.5 0.4-1.3 2.4-1.8 4.4l-1.1 3.7-5.1 0.3-5.2 0.3-0.5 1.7c-0.3 0.9-1.9 7.1-3.6 13.7-1.7 6.6-3.6 13.7-4.1 15.7l-1 3.8h-7.5-7.5l-0.4-1.3c-0.3-0.6 1.4-8.3 3.8-16.9l4.4-15.7-1-1c-0.6-0.6-2.9-1.1-5-1.1h-4l0.7-5.2c0.4-2.8 0.9-5.5 1.2-5.9 0.2-0.4 8.5-0.7 18.4-0.8z"/>
		<path id="Layer" class="s0" d="m467.4 381.6l1.6 0.6 0.1 5.2c0 2.8 0.4 7.3 0.8 10.1l0.7 5 1.2-4c0.6-2.2 1.6-6.3 2.3-9 0.6-2.8 1.6-5.8 2.1-6.9l1-1.8 6.1 0.7c3.4 0.3 6.4 0.8 6.8 1.1 0.6 0.3-4.2 20.6-10.2 42.6l-1 3.8h-8.3-8.4l-0.6-1.6c-0.3-0.9-0.6-4.6-0.7-8.2 0-3.7-0.4-7.6-0.8-8.7l-0.8-2-2.4 10-2.4 10-7.3 0.3-7.2 0.3-0.6-1.4c-0.4-1.2 9.9-43.8 11.2-45.8 0.6-1 14.4-1.2 16.8-0.3z"/>
		<path id="Layer" fill-rule="evenodd" class="s0" d="m93.5 443.1l4 1.1 3.8 4 3.7 3.9v14l-1.9 3.8c-2.4 4.6-7.8 9.5-12.9 11.7l-3.7 1.5-8.7-0.3-8.8-0.3-4.6-4.7-4.7-4.6-0.5-5.6c-0.2-3-0.2-6.6 0.1-7.8 0.4-1.3 2-4.4 3.7-7l3.1-4.7 4.2-2.4c2.3-1.4 5.1-2.7 6.2-3 3.7-0.9 13-0.7 17 0.4zm-8 9c-3.9 0.5-6.9 1.8-9.4 4.1l-2.9 2.8-0.4 4.6-0.3 4.6 1.2 1.8c0.7 1 2.6 2.1 4.2 2.5l2.9 0.6 3.5-1.5 3.6-1.4 1.5-3.1c0.9-1.6 1.6-5 1.6-7.5v-4.5l-2.2-1.5c-1.2-0.9-2.7-1.5-3.3-1.5z"/>
		<path id="Layer" class="s0" d="m115.8 442.2l4.9-0.3 1.1 1.3c0.5 0.7 1.4 6.4 1.9 12.6l0.8 11.4 4.9-9.4c2.7-5.1 5.7-10.7 6.8-12.5l1.9-3.2 5 0.1h5.1l1.8 1.8 1.8 1.8 0.6-1.4 0.6-1.4 18.2 0.2 18.3 0.3-0.2 3.9c-0.2 2.1-0.8 4.5-1.4 5.2l-1.1 1.4h-11.4-11.4v1.5 1.4l10.3 0.3 10.2 0.3-0.3 3.5c-0.2 1.9-0.8 4.1-1.4 4.7l-1 1.3h-10.3-10.3l-0.6 1.6c-0.8 2.1-0.8 3.4 0.2 3.3 0.4-0.1 5.5-0.1 11.5 0l10.7 0.1v2.7c0 1.6-0.6 3.9-1.3 5.3l-1.3 2.5-17.9-0.2-18-0.2-0.3-2.4c-0.2-1.3 1.3-8.8 3.3-16.7 2-7.8 3.4-14.7 3.3-15.2-0.2-0.5-4.8 6.5-10.2 15.4-5.5 9-10.6 17.1-11.4 18l-1.5 1.8h-6.8-6.8l-0.9-1.8c-0.5-0.9-1.7-9.7-2.8-19.5l-1.8-17.8 1.1-0.7c0.6-0.4 3.3-0.8 6.1-1z"/>
		<path id="Layer" fill-rule="evenodd" class="s0" d="m22.4 443h26.3l6.4 2.2 1.4 2.9c0.8 1.5 1.5 4.2 1.5 5.9 0 3.1-2.4 9-3.8 9-0.4 0-1.3 0.4-2.1 0.9l-1.5 0.9 1.3 1.5 1.2 1.5-0.3 7.4-0.3 7.3-5.1 0.2c-2.8 0.1-5.7-0.3-6.5-0.7l-1.4-0.9-1-11.6h-9.9l-1.8 6c-1 3.2-2.4 6.3-3.1 6.7-0.6 0.4-3.4 0.7-6 0.6l-4.9-0.1-0.5-1.5c-0.7-1.8 7.4-35.5 9-37.1zm10.9 10.1l-2.3 0.8v2.6c0 1.4 0.6 2.8 1.3 3.1 0.8 0.3 3.6 0.1 6.2-0.3l4.8-0.8 2.2-3.4-1.2-1.2c-1.5-1.5-8.1-2-11-0.8z"/>
		<path id="Layer" fill-rule="evenodd" class="s0" d="m195.1 443h30.4l3.6 3 3.6 2.9v9.3l-3.2 3.3-3.1 3.4 0.9 7.5c0.5 4.2 0.7 8.2 0.4 8.9l-0.5 1.4-6.2-0.2c-3.3-0.2-6.3-0.4-6.5-0.6-0.2-0.2-0.7-3.1-1.2-6.4l-0.8-6-9.4-0.6-1.1 4.3c-0.6 2.4-1.5 5.4-1.9 6.8l-0.8 2.5-6.2 0.1-6.3 0.1-0.5-1.4c-0.5-1.4 4.2-22.9 7.4-33.6zm15.9 9h-2.9l-1.5 2.2c-0.9 1.2-1.6 2.8-1.6 3.5v1.3h5.4c3 0 6.1-0.3 7-0.6 0.9-0.3 1.6-1.5 1.6-2.5v-1.9l-2.6-1c-1.4-0.6-3.8-1-5.4-1z"/>
		<path id="Layer" class="s0" d="m274 443.1l6.5-0.1 3.3 2 3.3 2 1.5 3.6c0.8 2 1.3 4.2 1.1 4.9-0.3 0.6-3.1 1.7-6.4 2.4l-5.8 1.1-1.8-2.5-1.9-2.5h-2.6c-1.5 0-3.5 0.7-4.4 1.4-2.3 1.7-4.8 7.7-4.8 11.4 0 3.4 1.6 5.2 4.8 5.2h2.5l3.4-3.7 3.5-3.6 4.6 1.4 4.7 1.5 0.3 2.1 0.3 2.1-3.6 3.6c-1.9 2-5 4.3-6.8 5.3l-3.2 1.7h-7.5l-7.5 0.1-3.6-2.2c-1.9-1.2-4.1-3.4-4.7-4.8-0.7-1.4-1.2-5.2-1.2-8.3v-5.7l1.9-4c2.4-5.2 8.6-11.1 13.6-12.9 2.2-0.8 6.9-1.5 10.5-1.5z"/>
		<path id="Layer" class="s0" d="m464.8 443.5l16.3 0.2 16.3 0.3 0.9 0.9 1 1-1.4 3.8-1.5 3.8-10.2 0.3-10.2 0.3v1.4 1.4l8.8 0.3 8.7 0.3-0.3 3.4c-0.1 1.9-0.7 4.1-1.4 4.8l-1 1.3h-8.9c-4.9 0-8.9 0.2-8.9 0.4 0 0.2-0.3 1.1-0.6 2l-0.6 1.5 9.9 0.3 9.8 0.3-0.2 4.3c-0.1 2.4-0.7 5-1.4 5.8l-1.2 1.5-16.4-0.2-16.4-0.1-0.6-1.4c-0.5-1.5 7-33.3 8.6-36.3z"/>
		<path id="Layer" class="s0" d="m573.8 443h7.3l2.9 1.5c3.6 1.8 6 5.2 6 8.2v2.3l-2.6 1c-1.4 0.6-4.4 1-6.7 1h-4.1l-2.2-2.1-2.2-2.1-3 0.7c-3.8 0.8-5.7 3-7.7 8.5l-1.5 4.3 0.6 2.1c0.4 1.2 1.2 2.4 1.8 2.8 1.9 1.3 8.1 0.9 10.2-0.7l1.9-1.4-3.7-0.1h-3.8v-3.1c0-1.7 0.5-3.9 1-5l1.1-1.9h9.9 10v2.2c0 3.5-2.7 12.7-4.2 14.5-0.7 0.9-3.8 2.7-6.8 4.1l-5.5 2.5-8 0.1-8 0.1-3-1.5c-1.6-0.8-4-3-5.2-4.9l-2.3-3.4v-5-5.1l2-4.1c2.6-5.4 9.8-12.3 14.6-14 2.1-0.8 7.2-1.4 11.2-1.5z"/>
		<path id="Layer" class="s0" d="m298.1 444h7 7.1l-0.5 2.2c-0.3 1.3-0.9 4-1.3 6.1l-0.6 3.8 5.3-0.3 5.4-0.3 1.4-5.8 1.3-5.7h6.9 6.9v2c0 1.8-4.1 18.5-7.6 30.6l-1.5 5.2-1.9 0.5c-2.4 0.6-10.9 0.1-11.7-0.7-0.4-0.4 0-3.5 0.9-7.1l1.5-6.4-1.1-0.4c-1.6-0.6-7.9 0.2-8.8 1.1-0.5 0.5-1.6 3.8-2.6 7.3l-1.7 6.4h-6.4-6.4l-0.4-1.3c-0.5-1.1 3.6-19.1 7.3-32z"/>
		<path id="Layer" fill-rule="evenodd" class="s0" d="m355.5 444h15.4l0.5 1.7c0.3 1 1.7 9.2 3.1 18.3l2.5 16.5-1.7 1.2c-1.8 1.4-5.4 1.6-10.1 0.7l-3-0.6-0.6-2.9-0.5-2.9h-11.7l-1.7 3-1.8 2.9-3.3 0.6c-3.4 0.7-9.3 0.1-10.4-1-0.8-0.8-0.1-2 12.8-21.6zm4.1 14c-0.4 0-3.6 6.5-3.6 7.4 0 0.3 0.9 0.6 2 0.6h2v-4c0-2.2-0.2-4-0.4-4z"/>
		<path id="Layer" class="s0" d="m389.2 444h6.9c3.7 0 7 0.4 7.3 0.8 0.5 0.9-3.4 16.7-5.3 21.6l-1.2 2.9 1.3 0.9c0.7 0.4 4.8 0.8 9.2 0.8h7.9l-0.7 4.1c-0.4 2.3-1.1 5-1.6 6l-1 1.8-15.4-0.2c-8.5-0.1-15.8-0.5-16.1-0.9-0.7-0.7 1.7-11.3 6.7-30.1z"/>
		<path id="Layer" class="s0" d="m426.4 444h7.3 7.3v1.7c0 1-1.4 6.7-3 12.8-1.6 6-3 11.2-3 11.5 0 0.3 3.8 0.6 8.5 0.6 4.7 0.1 8.9 0.4 9.2 0.8 0.3 0.3 0 2.9-0.8 5.8l-1.4 5.3-13 0.3c-7.2 0.2-14.5 0-16.2-0.3l-3.3-0.6v-1.7c0-0.9 1.9-9.5 4.2-19z"/>
		<path id="Layer" class="s0" d="m505.2 444h6.9 6.9l3.7 7.5c2.1 4.1 4 7.5 4.4 7.5 0.4 0 0.9-1.7 1.3-3.8 0.3-2 1.1-5.4 1.6-7.5l1.1-3.7h6.4 6.5v3.2c0 3.5-7.4 33.5-8.4 34.6-0.4 0.3-3.3 0.8-6.6 1l-5.9 0.4-4.2-8.8-4.2-8.9-0.8 2.5c-0.4 1.4-1.5 5.1-2.4 8.2l-1.6 5.8-1.5 0.1c-1.8 0.2-5.7 0.2-8.9 0l-2.5-0.1v-2.5c0-1.4 1.9-10 4.1-19z"/>
		<path id="Layer" class="s0" d="m599.9 444h17.6 17.5l-0.1 1.7c0 1-0.8 3.1-1.8 4.8l-1.8 3-9.8 0.5-9.8 0.5-0.4 1.2-0.4 1.2 8.8 0.3 8.8 0.3 0.3 2.3c0.2 1.3-0.4 3.4-1.2 4.7l-1.6 2.4-8.7 0.3-8.8 0.3-0.3 2-0.3 2 8.9-0.3 8.8-0.4 1.2 1.4 1.1 1.4-1 3.7c-0.5 2-1.4 3.9-2 4.2-0.7 0.5-24.8 0.9-32.6 0.6-0.7-0.1-1.3-1.1-1.3-2.4 0-1.8 7.1-30.5 8.5-34.5z"/>
	</g>
	<g id="Layer">
		<path id="Layer" class="s1" d="m305.4 48c1 0 12.6 6 12.6 6.5 0 0.5-11.9-5.2-12.9-6.1-0.2-0.2-0.1-0.4 0.3-0.4z"/>
		<path id="Layer" class="s1" d="m45.6 132c0.3 0-1 2.7-2.8 5.9-1.8 3.3-3.4 5.8-3.6 5.6-0.3-0.2 1-2.9 2.8-5.9 1.7-3.1 3.4-5.6 3.6-5.6z"/>
		<path id="Layer" class="s1" d="m25.6 133.2c0.4 0.5-5 15.5-5.9 16.4-0.6 0.6 2.8-9.9 4.8-14.9 0.4-1 0.9-1.6 1.1-1.5z"/>
		<path id="Layer" class="s1" d="m285.3 185.5l0.4 4.2 0.4 4.1 1.5 0.6 1.5 0.6 0.5-1.5c0.4-0.8 1.4-1.5 2.3-1.5l1.6 0.1-1.8 1.3c-1 0.8-1.7 2.2-1.5 3.2l0.3 1.9h-1.5c-0.8 0-1.4 0.7-1.4 1.6 0.1 0.9-0.5 1.6-1.2 1.6-1.8 0-1.8-0.7 0.2-3.5 1.9-2.8 1.1-4-1.3-2.1l-1.7 1.4 0.9-1.4c0.5-0.8 0.9-3.5 0.8-6z"/>
		<path id="Layer" class="s1" d="m311.7 191.5c0.8 1.6 2.9 4.6 4.7 6.5l3.1 3.5-3.3-3c-3.2-2.8-6.2-7.4-6.2-9.2 0.1-0.4 0.8 0.5 1.7 2.2z"/>
		<path id="Layer" class="s1" d="m253.5 193.9l2.2 1.1c1.2 0.5 2.5 1.5 2.8 2l0.6 1-10.8-0.2-10.8-0.2 9.9-0.3 9.9-0.4-1.9-1.5z"/>
		<path id="Layer" class="s1" d="m425.4 200.3l1.9 1.4-1.7 0.6c-2.2 0.9-3.6 0.1-3.6-1.9 0-1.8 1.1-1.8 3.4-0.1z"/>
		<path id="Layer" class="s1" d="m418.4 201l0.8 0.8c0.5 0.5 1 1.8 1.2 2.9l0.4 2.1-1.1-0.2c-0.7-0.1-1.8-0.5-2.4-0.9l-1.3-0.8v1.1c0 0.6-0.5 0.8-1.1 0.5l-1.1-0.7 2.3-2.4z"/>
		<path id="Layer" class="s1" d="m242.5 203.2c0.6-0.1 0.3 0.3-0.5 0.8-0.8 0.5-3.5 0.9-6 0.8l-4.5-0.1 5-0.7c2.8-0.4 5.5-0.7 6-0.8z"/>
		<path id="Layer" class="s1" d="m251 203.3c4.1 0 5.8 0.2 3.8 0.4-2.1 0.2-5.5 0.2-7.5 0-2.1-0.2-0.4-0.4 3.7-0.4z"/>
		<path id="Layer" class="s1" d="m327.7 204c0.9 0 6.3 3.1 6.3 3.6 0 0.2-1.3-0.2-3-1.1-3.6-1.9-4-1.9-4 0v1.4l-1.6-0.6-1.7-0.6 1.9-1.4c1-0.7 1.9-1.3 2.1-1.3z"/>
		<path id="Layer" class="s1" d="m412.3 210.3l-0.6 0.9 2.1-0.6 2-0.7 0.7 1.1 0.6 1h-3.5c-3.2 0-5.2-1.1-4.1-2.2 0.9-0.9 3.4-0.5 2.8 0.5z"/>
		<path id="Layer" class="s1" d="m130.9 215.5l1.8 2.5c1 1.4 3.6 4.5 5.8 7l3.9 4.5-4-3.7c-2.2-2.1-4.7-5.2-5.7-7z"/>
		<path id="Layer" class="s1" d="m284.8 219.2c1.4 1.4 1.6 3.2 0.3 2.4-0.5-0.3-1.4 0.1-2.1 0.9l-1.2 1.5 2.5-0.2c1.4-0.1 2.3-0.6 2.1-1-0.3-0.4 0-0.8 0.6-0.8 0.6 0 1.3 0.7 1.7 1.5l0.5 1.6-1.6 1.8c-0.9 1-1.3 2.1-0.9 2.6 0.5 0.4 0.2 0.6-0.6 0.3-0.8-0.2-1.7-1-1.9-1.8l-0.5-1.3 1.1 0.7c0.6 0.3 1.4 0.2 1.7-0.4 0.4-0.6 0.3-1-0.2-0.9-1.5 0.4-6.3-2-6.3-3.1 0-0.6 0.5-2 1-3.1 1.2-2.2 2.1-2.4 3.8-0.7z"/>
		<path id="Layer" class="s1" d="m217.9 220.1l3.6 0.2-4 0.7c-2.2 0.4-3.3 0.8-2.5 1 0.8 0.1 2 0.1 2.5 0 0.6-0.1 0.7 0.2 0.2 0.6-1.2 1.2-4.7 1.2-4.7-0.1 0-0.6 0.3-1.5 0.7-1.8 0.3-0.4 2.2-0.6 4.2-0.6z"/>
		<path id="Layer" class="s1" d="m238.5 221.3c3.9 0 5.3 0.2 3.2 0.4-2 0.2-5.2 0.2-7 0-1.7-0.2 0-0.4 3.8-0.4z"/>
		<path id="Layer" class="s1" d="m253 222.3c3.6 0 5 0.2 3.3 0.4-1.8 0.2-4.8 0.2-6.5 0-1.8-0.2-0.4-0.4 3.2-0.4z"/>
		<path id="Layer" class="s1" d="m220.4 223.6l0.4 1.2c0.2 0.7 0.8 1 1.3 0.6 0.5-0.3 1.2 0.2 1.5 1 0.3 0.9 1.3 1.6 2.2 1.6 0.8 0 1.2 0.3 0.9 0.7-0.4 0.3-2.2-0.2-4.1-1.2l-3.5-1.9 0.6-1z"/>
		<path id="Layer" class="s1" d="m326 230.3c3.6 0 5 0.2 3.3 0.4-1.8 0.2-4.8 0.2-6.5 0-1.8-0.2-0.4-0.4 3.2-0.4z"/>
		<path id="Layer" class="s1" d="m310 231.3c3.6 0 5 0.2 3.3 0.4-1.8 0.2-4.8 0.2-6.5 0-1.8-0.2-0.4-0.4 3.2-0.4z"/>
		<path id="Layer" class="s1" d="m295 232.3c3.6 0 5 0.2 3.3 0.4-1.8 0.2-4.8 0.2-6.5 0-1.8-0.2-0.4-0.4 3.2-0.4z"/>
		<path id="Layer" class="s1" d="m275 233.4c6.3 0 8.9 0.1 5.8 0.3-3.2 0.2-8.4 0.2-11.5 0-3.2-0.2-0.6-0.3 5.7-0.3z"/>
		<path id="Layer" class="s1" d="m275.8 237.7c2.3 0.2 4.2 0.8 4.2 1.3 0 0.4-1.6 1.8-3.5 3-4.3 2.7-4.7 3.8-0.4 1.3 6.4-3.8 6.2-6.4-0.4-6.1l-4.2 0.1z"/>
		<path id="Layer" class="s1" d="m250.5 242.2c1.6 0-5 2.6-8.1 3.3-1.6 0.3-0.6-0.4 2.1-1.4 2.8-1.1 5.5-1.9 6-1.9z"/>
		<path id="Layer" class="s1" d="m226.5 247.3c3.3 0 4.8 0.2 3.3 0.4-1.5 0.2-4.2 0.2-6 0-1.8-0.2-0.6-0.4 2.7-0.4z"/>
		<path id="Layer" class="s1" d="m244.3 255.1l2.2 0.1-1.5 0.5c-0.8 0.2-2.4 0.9-3.6 1.4-1.1 0.6-4.2 0.9-7 0.6l-4.9-0.3 5.7-0.2c3.1-0.1 6-0.7 6.3-1.2 0.3-0.6 1.6-1 2.8-0.9z"/>
		<path id="Layer" class="s1" d="m215.5 257c3.2 0 5.6 0.2 5.3 0.5-0.8 0.8-9.8 0.9-10.5 0.1-0.4-0.3 2-0.6 5.2-0.6z"/>
		<path id="Layer" class="s1" d="m114.5 277.3l4.5-0.1c2.5-0.1 5.9 0.6 7.5 1.4 1.7 0.8 2.1 1.1 1 0.8-1.1-0.3-4.5-1-7.5-1.4z"/>
		<path id="Layer" class="s1" d="m50.9 278.2l4.6 0.2-4.8 0.3-4.8 0.4 0.3 17c0.2 9.3 0 16.9-0.4 16.9-1 0-1.1-33.4-0.1-34.3 0.3-0.4 2.7-0.6 5.2-0.5z"/>
		<path id="Layer" class="s1" d="m64.9 278h3.6 3.5v17.5c0 9.6-0.3 17.5-0.7 17.5-0.5 0-0.7-7.6-0.5-17l0.3-17h-3.1-3l-0.2 4.7-0.1 4.8-0.4-3.9c-0.3-2.1-0.2-4.4 0.1-5.2z"/>
		<path id="Layer" class="s1" d="m90.5 278.3c3.3 0 4.8 0.2 3.3 0.4-1.5 0.2-4.2 0.2-6 0-1.8-0.2-0.6-0.4 2.7-0.4z"/>
		<path id="Layer" class="s1" d="m59.9 288.5c1.7 4.3 2.7 7.4 2.2 6.9-0.9-0.8-6.1-13.9-6.1-15.2 0-1.4 1.1 0.9 3.9 8.3z"/>
		<path id="Layer" class="s1" d="m95.8 279.5l1 1.5c0.5 0.8 2.2 5.9 3.6 11.2 1.5 5.4 2.9 10.6 3.2 11.5l0.6 1.8-1-1.5c-0.6-0.8-2.2-6-3.7-11.5-1.5-5.5-2.9-10.6-3.2-11.5z"/>
		<path id="Layer" class="s1" d="m114.5 287.9l3 1.5c1.7 0.8 5.2 2.2 7.8 3.1 2.7 1 4.7 1.9 4.5 2-0.7 0.7-12.4-3.7-13.8-5.1z"/>
		<path id="Layer" class="s1" d="m56 295.6c1.1 1.1 6.2 14.5 5.7 15-0.2 0.2-1.7-3.3-3.4-7.7-1.8-4.5-2.8-7.8-2.3-7.3z"/>
		<path id="Layer" class="s1" d="m79.6 296.3c0.2 0.2-0.5 3-1.6 6.3-1.2 3.2-1.9 6.9-1.7 8.1 0.2 1.3 0 2.3-0.4 2.3-1.5 0-1-4.3 1.2-10.9 1.2-3.4 2.3-6 2.5-5.8z"/>
		<path id="Layer" class="s1" d="m312.5 296.3c3.3 0 4.8 0.2 3.3 0.4-1.5 0.2-4.2 0.2-6 0-1.8-0.2-0.6-0.4 2.7-0.4z"/>
		<path id="Layer" class="s1" d="m106 301h4 3.9l1.1 2.2 1.1 2.3-1.4-1.8-1.4-1.7h-3.3-3.2l0.6 3.7 0.7 3.8-1-1.5c-0.6-0.8-1.1-2.7-1.1-4.3z"/>
		<path id="Layer" class="s1" d="m90 305.1l3.5 0.2-3.9 0.6-4 0.6-0.8 3.2c-0.5 1.8-1.4 3.3-2 3.3h-1.2l1.2-1.2c0.7-0.7 1.2-1.9 1.2-2.8 0-0.9 0.5-2.1 1.2-2.8 0.7-0.7 2.8-1.1 4.8-1.1z"/>
		<path id="Layer" class="s1" d="m154.3 305.7c0.3 0.5-1.5 0.6-4 0.4l-4.5-0.3-0.9 1.3-0.9 1.4v-1.1c0-0.6 0.3-1.4 0.7-1.7 0.9-0.9 9.1-0.9 9.6 0z"/>
		<path id="Layer" class="s1" d="m439.5 306.8l2 0.7c1.1 0.4 3.8 1.2 6 1.7 2.2 0.5 7.6 2.7 12 4.9 9.5 4.7 8.2 4.4-3.4-0.7l-8.4-3.7h-5.6c-3.1-0.1-4.3-0.3-2.7-0.5l2.9-0.4-1.4-1z"/>
		<path id="Layer" class="s1" d="m134.2 308.5l0.5 1.7 0.4 1.7 3.7 0.4 3.7 0.4-4.2 0.1-4.3 0.2 0.1-2.3z"/>
		<path id="Layer" class="s1" d="m410 309.3c4.1 0 5.8 0.2 3.8 0.4-2.1 0.2-5.5 0.2-7.5 0-2.1-0.2-0.4-0.4 3.7-0.4z"/>
		<path id="Layer" class="s1" d="m389.7 316.2c5.6-0.1 10.4 0.1 10.6 0.5 0.5 0.7-8.9 0.7-17.3-0.1-1.9-0.1 1.1-0.3 6.7-0.4z"/>
		<path id="Layer" class="s1" d="m111.3 317.9l10.6 0.3 10.6 0.3 0.1 5.3 0.1 5.2-0.4-5-0.4-5h-10.3-10.2l-1.4 1.2-1.4 1.3 1.3-1.8z"/>
		<path id="Layer" class="s1" d="m142.5 318.4h10.5l10.5 0.1 0.1 2.5 0.1 2.5-0.4-2.2-0.4-2.2-10.2-0.4z"/>
		<path id="Layer" class="s1" d="m451 324.2c0.8 0.3 4 1.3 7 2.3 3 0.9 5.9 2.1 6.5 2.6 0.5 0.5-2.4-0.2-6.4-1.6-4.1-1.4-7.7-2.8-8-3.2-0.3-0.3 0.1-0.4 0.9-0.1z"/>
		<path id="Layer" class="s1" d="m492.9 332.2c2.5 1.5 4.1 2.8 3.6 2.8-1 0-10.5-6-10.5-6.7 0-0.5 0.3-0.3 6.9 3.9z"/>
		<path id="Layer" class="s1" d="m403.5 329.4c5.5 0 7.9 0.1 5.3 0.3-2.6 0.2-7.1 0.2-10 0-2.9-0.2-0.8-0.3 4.7-0.3z"/>
		<path id="Layer" class="s1" d="m468.1 330c1 0 11.9 5.1 11.9 5.6 0 0.5-5.5-1.7-9.6-3.9-1.6-0.9-2.6-1.6-2.3-1.7z"/>
		<path id="Layer" class="s1" d="m131.3 331.5l0.7 4c0.4 2.2 0.8 3.4 0.9 2.6 0-0.8 0.3-1.2 0.6-1 0.2 0.3 0.2 1.5-0.2 2.7-0.9 3.7-2.3 1.4-2.2-3.6z"/>
		<path id="Layer" class="s1" d="m464.4 338.5c5.5 1.9 10.2 3.8 10.5 4.2 0.7 0.7 0.6 0.7-10.4-3.2-4.4-1.6-8.4-3.2-9-3.7-0.5-0.5 3.5 0.7 8.9 2.7z"/>
		<path id="Layer" class="s1" d="m499.5 336.8c2.8 1.5 13 9.2 12.2 9.2-0.6 0-12.5-8.5-13.7-9.7-0.3-0.3 0.4-0.1 1.5 0.5z"/>
		<path id="Layer" class="s1" d="m483.4 337c1 0 12.6 6 12.6 6.5 0 0.5-11.9-5.2-12.9-6.1-0.2-0.2-0.1-0.4 0.3-0.4z"/>
		<path id="Layer" class="s1" d="m119.9 341c0.3 0 0.5 5.6 0.3 12.4l-0.4 12.5 5.1 0.4 5.1 0.4-5.2-0.1-5.3-0.1-0.6-10c-0.3-5.5-0.4-11.2-0.1-12.8 0.2-1.5 0.7-2.7 1.1-2.7z"/>
		<path id="Layer" class="s1" d="m142.3 341c0.8 0 0.4 3.7-0.6 7.4l-1.1 3.8-0.7-2.1-0.8-2.1 1.5-3.5c0.8-1.9 1.6-3.5 1.7-3.5z"/>
		<path id="Layer" class="s1" d="m438.2 343c1.4 0 19.4 6.3 20.2 7.1 0.6 0.5-3.7-0.7-9.4-2.7-5.7-1.9-10.6-3.7-10.9-3.9-0.2-0.3-0.2-0.5 0.1-0.5z"/>
		<path id="Layer" class="s1" d="m487.5 348.2c4.6 2.3 8.3 4.4 8.1 4.6-0.5 0.4-16.6-7.6-16.6-8.3 0-0.3 3.8 1.4 8.5 3.7z"/>
		<path id="Layer" class="s1" d="m498.4 345c1.2 0 20.7 11.7 23.7 14.3l2.4 1.9-3-1.8c-1.6-1-7.7-4.6-13.5-8.1-5.7-3.5-10.1-6.3-9.6-6.3z"/>
		<path id="Layer" class="s1" d="m469.1 354c4.1 1.7 7.8 3.5 8.3 4 0.5 0.5-2.8-0.6-7.4-2.6-4.7-1.9-8.7-3.7-8.9-4-0.9-0.9 0.9-0.3 8 2.6z"/>
		<path id="Layer" class="s1" d="m136.8 354.4c0.4 0.5-4.6 10.6-5.3 10.6-0.3 0 0.7-2.5 2.2-5.5 1.5-3 2.9-5.3 3.1-5.1z"/>
		<path id="Layer" class="s1" d="m154 355.5l1 1.5 0.9 1.5-0.8 0.3c-0.5 0.2-0.7 1.1-0.4 2l0.4 1.7-2.1 2.3-2.1 2.2h-6.4c-3.5 0-6.6-0.3-6.8-0.8-0.3-0.4 2.6-0.5 6.5-0.4l6.9 0.4 0.6-2.1c0.3-1.1 1-1.8 1.5-1.5l1 0.6-0.2-1.8c-0.1-1.1-0.2-2.8-0.1-3.9z"/>
		<path id="Layer" class="s1" d="m98.1 361.5l0.9 2.2 0.9 2.3h6.5 6.5l1-1.8c0.6-0.9 1.1-1.2 1.1-0.7 0 0.6-0.5 1.6-1.2 2.3l-1.2 1.2h-6.1-6.1l-1.2-1.2c-0.7-0.7-1.2-1.9-1.1-2.8z"/>
		<path id="Layer" class="s1" d="m384.5 381l1.1 1.5 1.2 1.6 0.5-1.3 0.5-1.3 0.1 1.1c0.1 0.6-0.6 1.7-1.4 2.4-0.8 0.7-1.5 2.2-1.4 3.4v2.1l1-2 0.9-2-0.3 1.8c-0.1 1-0.6 1.7-1.1 1.7-0.5-0.1-1.3 0.4-1.8 1.2l-0.9 1.3 0.8-3c0.4-1.7 0.8-4.2 0.8-5.8z"/>
		<path id="Layer" class="s1" d="m437.1 383.3l3.4 2.3 1.2 3.4c0.7 1.9 1.2 2.7 1.2 1.8 0.1-2.9-2-6.4-4.9-8.1-4.2-2.5-4.8-2.1-0.9 0.6z"/>
		<path id="Layer" class="s1" d="m484.5 382.3l2.7-0.2c1.5 0 2.9 0.2 3.1 0.6 0.2 0.5-0.1 2.6-0.8 4.8-1.5 4.6-2 3.6-0.6-1.2l0.9-3.2-2.6-0.4z"/>
		<path id="Layer" class="s1" d="m343.7 393.2c0.2 1.5 0.2 4.2 0 6-0.2 1.8-0.4 0.6-0.4-2.7 0-3.3 0.2-4.8 0.4-3.3z"/>
		<path id="Layer" class="s1" d="m442.7 413.3c0.5 0.6-1.8 10-2.8 11.1-0.4 0.4 0-1.9 0.8-5.3 0.9-3.4 1.7-6 2-5.8z"/>
		<path id="Layer" class="s1" d="m88.2 417.2c4.8-0.1 8.9 0.1 9.1 0.5 0.5 0.7-7.6 0.7-14.8-0.1-1.6-0.1 0.9-0.4 5.7-0.4z"/>
		<path id="Layer" class="s1" d="m209.2 417.1c4.2 0 7.9 0.2 8.1 0.6 0.5 0.7-7.4 0.7-13.3-0.1-1.4-0.2 1-0.4 5.2-0.5z"/>
		<path id="Layer" class="s1" d="m437 418c0.3 0-2 2.5-5.2 5.5-3.1 3-6.5 5.5-7.5 5.5l-1.8-0.1 3-1.3c1.7-0.8 4.8-3.2 7-5.5 2.1-2.2 4.2-4.1 4.5-4.1z"/>
		<path id="Layer" class="s1" d="m455.7 422.1c0.2 0.8-0.1 2.8-0.6 4.2l-1.1 2.7h-6.9c-3.8 0-7.2-0.3-7.4-0.8-0.3-0.4 2.8-0.6 6.8-0.4l7.4 0.4 0.7-3.9c0.5-2.1 0.9-3.1 1.1-2.2z"/>
		<path id="Layer" class="s1" d="m479.7 424.4c0.3 0.2 0.2 1.4-0.2 2.5l-0.6 2.1h-8.4-8.3l-0.7-1.8-0.6-1.7 1.2 1.2 1.3 1.3h7.4 7.4l0.5-2c0.3-1.2 0.8-1.9 1-1.6z"/>
		<path id="Layer" class="s1" d="m354.9 445.6c0.5 0.4-17.9 28.4-18.6 28.4-0.3 0 0.3-1.3 1.4-2.9 1-1.5 5.2-8 9.3-14.3 4.1-6.3 7.7-11.4 7.9-11.2z"/>
		<path id="Layer" class="s1" d="m309.3 453.5l0.4 1.2c0.2 0.7 2.3 1.4 4.6 1.6l4.2 0.4-4.5-0.1-4.5-0.1-0.1-1.5z"/>
		<path id="Layer" class="s1" d="m210.5 459.3c3.3 0 4.8 0.2 3.3 0.4-1.5 0.2-4.2 0.2-6 0-1.8-0.2-0.6-0.4 2.7-0.4z"/>
		<path id="Layer" class="s1" d="m249.4 473.2c0.4 1.5 1.9 3.9 3.4 5.4l2.7 2.6-2.6-1.6c-2.9-1.8-4.9-5.6-4.8-8.9 0.1-2.4 0.4-1.8 1.3 2.5z"/>
		<path id="Layer" class="s1" d="m349.5 475.4l5.8-0.2 5.7-0.2 1.3 2.7c0.6 1.6 1.6 3.1 2.2 3.5l1 0.8h-1.6-1.6l-0.6-2.9-0.6-3-5.8-0.4z"/>
	</g>
	<g id="Layer">
		<path id="Layer" class="s2" d="m332 296.3c4.7 0 6.6 0.2 4.3 0.4-2.4 0.2-6.2 0.2-8.5 0-2.4-0.2-0.5-0.4 4.2-0.4z"/>
		<path id="Layer" class="s2" d="m53.6 309.3c0.4 0.3 0.4 1.3 0.1 2.2l-0.6 1.5-4.3-0.2-4.3-0.1 4.3-0.4 4.2-0.4v-1.6c0-0.9 0.3-1.4 0.6-1z"/>
		<path id="Layer" class="s2" d="m32.3 318.1c7.4 0.2 6.2 0.6-3 1.1-2.8 0.2-4.9 0-4.6-0.5 0.2-0.4 3.7-0.6 7.6-0.6z"/>
		<path id="Layer" class="s2" d="m56.5 318.3c3.3 0 4.8 0.2 3.3 0.4-1.5 0.2-4.2 0.2-6 0-1.8-0.2-0.6-0.4 2.7-0.4z"/>
		<path id="Layer" class="s2" d="m186.5 318.4c5 0 7.1 0.1 4.8 0.3-2.3 0.2-6.4 0.2-9 0-2.6-0.2-0.7-0.3 4.2-0.3z"/>
		<path id="Layer" class="s2" d="m197.7 344.7c0.2 2.4 0.2 6.2 0 8.5-0.2 2.4-0.4 0.5-0.4-4.2 0-4.7 0.2-6.6 0.4-4.3z"/>
		<path id="Layer" class="s2" d="m35.3 363.5l0.4 1.2 0.4 1.2 7.5 0.4 7.4 0.3h-7.7l-7.8-0.1-0.1-1.5z"/>
		<path id="Layer" class="s2" d="m169 365.5l-1.2 1.5h-7.4c-4 0-7.5-0.3-7.7-0.8-0.3-0.4 2.9-0.6 7-0.4l7.5 0.4 1.1-1.1c1.6-1.6 2.1-1.3 0.7 0.4z"/>
		<path id="Layer" class="s2" d="m21 365.5c4.3 0 7.6 0.3 7.3 0.7-0.2 0.5-3.5 0.8-7.3 0.8-3.8 0-7.1-0.3-7.3-0.8-0.3-0.4 3-0.7 7.3-0.7z"/>
		<path id="Layer" class="s2" d="m197.8 365.2c0.2-0.1 0 0.2-0.3 0.8l-0.6 1-7.2-0.2-7.2-0.2 7.5-0.6c4.1-0.4 7.6-0.7 7.8-0.8z"/>
		<path id="Layer" class="s2" d="m75.5 366.3c4.4 0 6.3 0.2 4.3 0.4-2.1 0.2-5.7 0.2-8 0-2.4-0.2-0.7-0.4 3.7-0.4z"/>
		<path id="Layer" class="s2" d="m89 381.4c9.1 0 12.8 0.2 8.3 0.3-4.6 0.2-12 0.2-16.5 0-4.6-0.1-0.9-0.3 8.2-0.3z"/>
		<path id="Layer" class="s2" d="m108.4 381l8.1 0.2 8 0.2-8.2 0.3-8.3 0.4v1.4c0 0.8-0.4 1.5-1 1.5-1.4 0-1.3-1.3 0.2-2.8z"/>
		<path id="Layer" class="s2" d="m141 381.3c4.1 0 5.8 0.2 3.8 0.4-2.1 0.2-5.5 0.2-7.5 0-2.1-0.2-0.4-0.4 3.7-0.4z"/>
		<path id="Layer" class="s2" d="m85.9 393l8.3 0.2 8.3 0.2-8.2 0.3-8.3 0.4-0.1 2.2-0.1 2.2-0.5-1.3c-0.3-0.7-0.2-1.9 0.1-2.7z"/>
		<path id="Layer" class="s2" d="m89.5 410.3c3.9 0 5.3 0.2 3.2 0.4-2 0.2-5.2 0.2-7 0-1.7-0.2 0-0.4 3.8-0.4z"/>
		<path id="Layer" class="s2" d="m86.5 428.4c13.8 0 19.5 0.2 12.8 0.3-6.7 0.2-17.9 0.2-25 0-7-0.1-1.5-0.3 12.2-0.3z"/>
		<path id="Layer" class="s2" d="m198 429.4c8.5 0 12 0.2 7.8 0.3-4.3 0.2-11.3 0.2-15.5 0-4.3-0.1-0.8-0.3 7.7-0.3z"/>
		<path id="Layer" class="s2" d="m486 453.4c5.2 0 7.4 0.1 4.8 0.3-2.7 0.2-6.9 0.2-9.5 0-2.7-0.2-0.5-0.3 4.7-0.3z"/>
		<path id="Layer" class="s2" d="m174.5 457.4c5.5 0 7.9 0.1 5.3 0.3-2.6 0.2-7.1 0.2-10 0-2.9-0.2-0.8-0.3 4.7-0.3z"/>
		<path id="Layer" class="s2" d="m120.8 482l7.7 0.5-6.9 0.3c-3.8 0.2-7.3-0.1-7.7-0.5-0.4-0.4 2.7-0.6 6.9-0.3z"/>
	</g>
	<g id="Layer">
		<path id="Layer" class="s3" d="m137.9 48.4c-1 0.9-12.9 6.6-12.9 6.1 0-0.2 2.6-1.8 5.8-3.4 4.9-2.6 8.4-3.9 7.1-2.7z"/>
		<path id="Layer" class="s3" d="m219.5 318.3c4.4 0 6.3 0.2 4.3 0.4-2.1 0.2-5.7 0.2-8 0-2.4-0.2-0.7-0.4 3.7-0.4z"/>
		<path id="Layer" class="s3" d="m242.8 318.1c7.1 0.2 6.1 0.6-2.5 1.1-2.8 0.2-4.9 0-4.6-0.5 0.2-0.4 3.4-0.6 7.1-0.6z"/>
		<path id="Layer" class="s3" d="m229.7 327.2c0.2 1.5 0.2 4.2 0 6-0.2 1.8-0.4 0.6-0.4-2.7 0-3.3 0.2-4.8 0.4-3.3z"/>
		<path id="Layer" class="s3" d="m199.1 365.5l7.2 0.5 7.2 0.5-6.4 0.3c-3.5 0.2-6.8-0.1-7.2-0.5z"/>
		<path id="Layer" class="s3" d="m231 366.3c4.7 0 6.6 0.2 4.3 0.4-2.4 0.2-6.2 0.2-8.5 0-2.4-0.2-0.5-0.4 4.2-0.4z"/>
		<path id="Layer" class="s3" d="m168 381.4c6.3 0 8.9 0.1 5.8 0.3-3.2 0.2-8.4 0.2-11.5 0-3.2-0.2-0.6-0.3 5.7-0.3z"/>
		<path id="Layer" class="s3" d="m176 453.4c6.3 0 8.9 0.1 5.8 0.3-3.2 0.2-8.4 0.2-11.5 0-3.2-0.2-0.6-0.3 5.7-0.3z"/>
		<path id="Layer" class="s3" d="m481 466.3c3.6 0 5 0.2 3.3 0.4-1.8 0.2-4.8 0.2-6.5 0-1.8-0.2-0.4-0.4 3.2-0.4z"/>
		<path id="Layer" class="s3" d="m482 471.3c4.7 0 6.6 0.2 4.3 0.4-2.4 0.2-6.2 0.2-8.5 0-2.4-0.2-0.5-0.4 4.2-0.4z"/>
	</g>
	<g id="Layer">
		<path id="Layer" class="s4" d="m187 273.3c4.1 0 5.8 0.2 3.8 0.4-2.1 0.2-5.5 0.2-7.5 0-2.1-0.2-0.4-0.4 3.7-0.4z"/>
		<path id="Layer" class="s4" d="m299 273.5c49.8 0 70.1 0.1 45.3 0.2-24.9 0.2-65.7 0.2-90.5 0-24.9-0.1-4.6-0.2 45.2-0.2z"/>
		<path id="Layer" class="s4" d="m362 288.4c6.9 0 9.7 0.1 6.3 0.3-3.5 0.2-9.1 0.2-12.5 0-3.5-0.2-0.7-0.3 6.2-0.3z"/>
		<path id="Layer" class="s4" d="m359.5 296.4c5.5 0 7.9 0.1 5.3 0.3-2.6 0.2-7.1 0.2-10 0-2.9-0.2-0.8-0.3 4.7-0.3z"/>
		<path id="Layer" class="s4" d="m282.5 381.4c6.6 0 9.4 0.1 6.3 0.3-3.2 0.2-8.6 0.2-12 0-3.5-0.2-0.9-0.3 5.7-0.3z"/>
		<path id="Layer" class="s4" d="m505.2 444h6.9 6.9l2.1 4.1c1.1 2.3 1.6 3.8 1.1 3.5-0.5-0.3-1.5-1.9-2.2-3.6l-1.2-3h-6.1-6l-1.3 1.7-1.3 1.8 0.6-2.3z"/>
		<path id="Layer" class="s4" d="m531.2 444h6.4c3.5 0 6.4 0.3 6.4 0.7 0 0.5-2.5 0.6-5.5 0.5l-5.6-0.4-1.5 1.2-1.4 1.3 0.6-1.7z"/>
		<path id="Layer" class="s4" d="m608 444.3c4.1 0 5.8 0.2 3.8 0.4-2.1 0.2-5.5 0.2-7.5 0-2.1-0.2-0.4-0.4 3.7-0.4z"/>
		<path id="Layer" class="s4" d="m560.7 445c0.5 0-0.6 1.2-2.4 2.6-1.8 1.3-4.6 4.2-6.4 6.2-1.7 2-2.6 2.8-2.1 1.6 0.6-1.1 3.1-3.9 5.6-6.2 2.5-2.3 4.9-4.2 5.3-4.2z"/>
		<path id="Layer" class="s4" d="m605.5 481c5.7 0 10.6 0.3 10.8 0.7 0.3 0.5-4.6 0.8-10.8 0.8-6.2 0-11.1-0.3-10.8-0.8 0.2-0.4 5.1-0.7 10.8-0.7z"/>
	</g>
	<g id="Layer">
		<path id="Layer" class="s5" d="m86 82.3c0 0.1-2.8 2.9-6.2 6.2l-6.3 6 6-6.3c5.5-5.8 6.5-6.7 6.5-5.9z"/>
		<path id="Layer" class="s5" d="m19.7 227.2c0.2 2.7 0.2 6.9 0 9.5-0.2 2.7-0.3 0.5-0.3-4.7 0-5.2 0.1-7.4 0.3-4.8z"/>
		<path id="Layer" class="s5" d="m164 276.4c5.2 0 7.4 0.1 4.8 0.3-2.7 0.2-6.9 0.2-9.5 0-2.7-0.2-0.5-0.3 4.7-0.3z"/>
		<path id="Layer" class="s5" d="m212.5 276.4c7.7 0 10.7 0.2 6.7 0.3-4 0.2-10.3 0.2-14 0-3.7-0.2-0.4-0.3 7.3-0.3z"/>
		<path id="Layer" class="s5" d="m366.5 381.4c8.3 0 11.8 0.2 7.8 0.3-4 0.2-10.7 0.2-15 0-4.3-0.1-1-0.3 7.2-0.3z"/>
		<path id="Layer" class="s5" d="m395.5 482.4c7.2 0 10.2 0.1 6.8 0.3-3.4 0.2-9.3 0.2-13 0-3.7-0.2-0.9-0.3 6.2-0.3z"/>
		<path id="Layer" class="s5" d="m474.5 482.4c8.3 0 11.8 0.2 7.8 0.3-4 0.2-10.7 0.2-15 0-4.3-0.1-1-0.3 7.2-0.3z"/>
	</g>
	<g id="Layer">
		<path id="Layer" class="s6" d="m345 296.3c3.6 0 5 0.2 3.3 0.4-1.8 0.2-4.8 0.2-6.5 0-1.8-0.2-0.4-0.4 3.2-0.4z"/>
	</g>
	<g id="Layer">
		<path id="Layer" class="s7" d="m432 482.3c4.7 0 6.6 0.2 4.3 0.4-2.4 0.2-6.2 0.2-8.5 0-2.4-0.2-0.5-0.4 4.2-0.4z"/>
	</g>
	<g id="Layer">
		<path id="Layer" class="s8" d="m213.5 9.4c7.7 0 10.7 0.2 6.7 0.3-4 0.2-10.3 0.2-14 0-3.7-0.2-0.4-0.3 7.3-0.3z"/>
		<path id="Layer" class="s8" d="m395.9 128.6c3.3 4.5 6.6 11.4 5.4 11.4-0.7 0-7.2-11.5-8.2-14.4-0.2-0.6 1.1 0.8 2.8 3z"/>
		<path id="Layer" class="s8" d="m301.9 180c1.7 0 5.1 2.9 5.1 4.3 0 0.6-1.2 0-2.6-1.4l-2.6-2.4-2 2.5c-6.7 8.3-9.9 11.7-11.3 11.7h-1.5l2.2-2.6c1.2-1.4 4.3-4.7 6.7-7.4 2.5-2.6 5.2-4.7 6-4.7z"/>
		<path id="Layer" class="s8" d="m469 217.8l1.8 0.7c0.9 0.4 4.1 1.6 7.1 2.6 5.3 1.9 15.6 7.8 14.8 8.5-0.2 0.3-4-1.3-8.3-3.4-4.3-2.2-9.6-4.5-11.6-5.1-2.1-0.7-3.8-1.7-3.8-2.3z"/>
		<path id="Layer" class="s8" d="m213 221.5l0.8 1.2c0.4 0.6 1.9 1.4 3.2 1.7 3.4 0.6 7.8 2.5 6.2 2.5-0.7 0.1-3.3-0.4-5.8-1l-4.4-1.1v-1.7z"/>
		<path id="Layer" class="s8" d="m227.5 228.1l2.5 0.1c1.4 0 3.6 0.4 5 0.8l2.5 0.8h-3c-1.6 0-3.9-0.3-5-0.8z"/>
		<path id="Layer" class="s8" d="m458.1 230.6c2.8 1.4 4.9 2.7 4.7 3-0.6 0.5-11.8-4.3-11.8-5.1 0-1.1 2.2-0.4 7.1 2.1z"/>
		<path id="Layer" class="s8" d="m419.3 234c0.7 0.1-0.1 1.2-1.8 2.5-3.9 3.2-5.8 3.2-2.2 0 1.5-1.4 3.3-2.5 4-2.5z"/>
		<path id="Layer" class="s8" d="m409.4 240.7l0.4 1.2c0.5 1.4-4.4 6.9-5.2 6-0.3-0.2 0.7-2 2.1-3.8z"/>
		<path id="Layer" class="s8" d="m416.9 287.1c1.7 0.6 3.1 1.5 3.1 2 0 0.5-0.2 0.9-0.5 0.9-1 0-6.5-3-6.5-3.5 0-0.7 0.3-0.6 3.9 0.6z"/>
		<path id="Layer" class="s8" d="m581 426.5c4 4 4.8 6.4 0.9 2.9l-2.2-1.9 1.9 3 1.9 3-4.1-3.5c-2.2-1.9-3.9-3.7-3.8-3.9 0.2-0.2 1 0.2 1.9 0.9 0.9 0.7 1.9 1 2.3 0.6 0.4-0.4-0.1-1.2-1.1-1.7-0.9-0.6-1.7-1.5-1.7-2.2 0-0.6 1.8 0.6 4 2.8z"/>
	</g>
	<g id="Layer">
		<path id="Layer" class="s9" d="m622 453.4c5.2 0 7.4 0.1 4.8 0.3-2.7 0.2-6.9 0.2-9.5 0-2.7-0.2-0.5-0.3 4.7-0.3z"/>
		<path id="Layer" class="s9" d="m521.7 478.7l1.6 3.2 5.1 0.4 5.1 0.3-5.2 0.2-5.2 0.2-1.6-3c-0.8-1.6-1.5-3.3-1.4-3.7 0-0.4 0.7 0.6 1.6 2.4z"/>
	</g>
	<g id="Layer">
		<path id="Layer" class="s8" d="m445.5 228l0.6 1h-3.5c-2 0-3.6-0.3-3.6-0.8 0-1.1 5.8-1.3 6.5-0.2z"/>
	</g>
	<g id="Layer">
		<path id="Layer" class="s10" d="m618 466.3c4.7 0 6.6 0.2 4.3 0.4-2.4 0.2-6.2 0.2-8.5 0-2.4-0.2-0.5-0.4 4.2-0.4z"/>
		<path id="Layer" class="s10" d="m619.2 471.1c3.7 0 6.9 0.2 7.1 0.6 0.5 0.7-7.2 0.6-11.8-0.1-1.1-0.2 1-0.4 4.7-0.5z"/>
	</g>
	<g id="Layer">
	</g>
	<g id="Layer">
		<path id="Layer" class="s11" d="m294.7 188.3c0.6 0.7-1.9 4.6-3.4 5.1-1.9 0.8-1.6-0.7 0.8-3.3 1.2-1.2 2.3-2 2.6-1.8z"/>
	</g>
	<g id="Layer">
		<path id="Layer" class="s12" d="m136.5 275.3c4.4 0 6.3 0.2 4.3 0.4-2.1 0.2-5.7 0.2-8 0-2.4-0.2-0.7-0.4 3.7-0.4z"/>
	</g>
	<g id="Layer">
		<path id="Layer" class="s8" d="m138.5 273.3c3.3 0 4.8 0.2 3.3 0.4-1.5 0.2-4.2 0.2-6 0-1.8-0.2-0.6-0.4 2.7-0.4z"/>
		<path id="Layer" class="s8" d="m471 273.3c4.1 0 5.8 0.2 3.8 0.4-2.1 0.2-5.5 0.2-7.5 0-2.1-0.2-0.4-0.4 3.7-0.4z"/>
	</g>
	<g id="Layer">
	</g>
	<g id="Layer">
	</g>
	<g id="Layer">
	</g>
	<g id="Layer">
	</g>
	<g id="Layer">
	</g>
	<g id="Layer">
	</g>
	<g id="Layer">
	</g>
	<g id="Layer">
	</g>
</svg>