<?xml version="1.0" standalone="no"?>
<!DOCTYPE svg PUBLIC "-//W3C//DTD SVG 20010904//EN"
 "http://www.w3.org/TR/2001/REC-SVG-20010904/DTD/svg10.dtd">
<svg version="1.0" xmlns="http://www.w3.org/2000/svg"
 width="512.000000pt" height="512.000000pt" viewBox="0 0 512.000000 512.000000"
 preserveAspectRatio="xMidYMid meet">

<g transform="translate(0.000000,512.000000) scale(0.100000,-0.100000)"
fill="#000000" stroke="none">
<path d="M2335 5114 c-203 -18 -468 -71 -635 -129 -836 -289 -1528 -1160
-1677 -2110 -20 -132 -31 -1032 -13 -1119 26 -125 128 -258 240 -313 111 -54
3383 -1397 3450 -1415 109 -30 314 -30 425 0 282 78 491 268 601 548 19 48 34
93 34 101 0 7 -457 242 -1072 549 -995 498 -1075 540 -1130 591 -64 62 -111
144 -128 227 -7 37 -10 187 -8 458 3 357 6 409 21 453 60 166 221 290 392 302
53 3 336 -29 1152 -131 595 -75 1089 -136 1097 -136 12 0 11 14 -5 88 -69 320
-194 617 -373 886 -417 628 -1046 1018 -1820 1132 -100 14 -454 26 -551 18z
m-1065 -2614 l0 -620 -135 0 -135 0 0 465 c0 256 -3 465 -6 465 -3 0 -24 -11
-48 -25 -45 -27 -110 -51 -168 -64 l-38 -9 0 113 0 112 63 23 c77 28 205 93
255 131 34 25 45 28 125 28 l87 1 0 -620z"/>
<path d="M2796 2938 c-77 -46 -77 -44 -74 -475 3 -367 4 -383 24 -410 17 -23
240 -151 267 -153 10 0 9 1037 -1 1044 -4 2 -46 7 -92 11 -77 5 -89 4 -124
-17z"/>
<path d="M3320 2326 l0 -581 805 -403 c880 -440 853 -428 926 -379 73 48 69
-2 69 905 0 446 -1 812 -2 812 -2 1 -407 52 -900 114 l-898 112 0 -580z"/>
</g>
</svg>
