<?xml version="1.0" standalone="no"?>
<!DOCTYPE svg PUBLIC "-//W3C//DTD SVG 20010904//EN"
 "http://www.w3.org/TR/2001/REC-SVG-20010904/DTD/svg10.dtd">
<svg version="1.0" xmlns="http://www.w3.org/2000/svg"
 width="64.000000pt" height="64.000000pt" viewBox="0 0 64.000000 64.000000"
 preserveAspectRatio="xMidYMid meet">

<g transform="translate(0.000000,64.000000) scale(0.100000,-0.100000)"
fill="#000000" stroke="none">
<path d="M91 627 c-8 -10 -2 -21 24 -47 37 -35 43 -58 23 -78 -19 -19 -35 -14
-76 23 -44 39 -62 33 -62 -19 0 -70 63 -126 142 -126 42 0 48 -4 141 -98 92
-93 97 -99 97 -140 0 -79 56 -142 126 -142 52 0 59 21 19 60 -37 35 -43 58
-23 78 20 20 43 14 78 -23 39 -40 60 -33 60 19 0 70 -63 126 -142 126 -42 0
-48 4 -141 98 -94 94 -97 99 -97 142 0 54 -27 103 -69 125 -37 18 -85 20 -100
2z"/>
<path d="M530 607 c-39 -24 -55 -40 -55 -55 0 -12 -24 -45 -58 -80 l-57 -58
25 -24 25 -24 58 57 c43 42 64 57 82 55 19 -2 30 8 58 55 l35 58 -23 24 c-13
14 -26 25 -29 25 -3 0 -31 -15 -61 -33z"/>
<path d="M97 201 c-107 -108 -117 -132 -72 -176 44 -45 68 -35 179 75 l101 99
-50 51 c-27 27 -52 50 -55 50 -4 0 -50 -44 -103 -99z m133 8 c0 -19 -112 -129
-132 -129 -31 0 -20 22 39 82 53 53 93 74 93 47z"/>
</g>
</svg>
